<?xml version="1.0" encoding="UTF-8"?>
<!-- Created with Inkscape (http://www.inkscape.org/) -->
<svg width="100" height="100" version="1.1" viewBox="0 0 26.458 26.458" xmlns="http://www.w3.org/2000/svg">
 <g fill="#fff" stroke-width=".063232">
  <path d="m4.7928 5.1562c3.4211 0.10351 6.8892 0.56795 10.272-0.19166 1.1694-0.2699 2.3392 0.11857 3.5108 0.18037 1.0184 0.084808 2.3384 0.62403 3.1491-0.23222 0.77922-1.5278-1.361-1.6785-2.3684-1.6661-1.3052-0.14265-2.6273-0.44936-3.9378-0.34616-2.1252 0.35781-4.2767 0.63977-6.436 0.45955-1.5141-0.051644-3.0352-0.2614-4.5473-0.16193-1.1051 0.28309-0.79689 2.091 0.35731 1.9582z"/>
  <path d="m20.254 4.417c0.0506 1.2302 0.03834 2.5436-0.71985 3.583-0.69142 1.2588-1.4141 2.5113-2.3263 3.6257-0.86455 0.04794-1.9643 0.39946-2.5812 1.1581-1.029 1.2842 0.83793 2.0098 1.8128 2.3547 1.3893 0.74879 2.798 1.7784 3.3268 3.3372 0.64415 1.3745 0.55151 2.9287 0.79321 4.3899 0.43778 1.3529 2.5491 0.21344 1.8881-0.9423-0.10921-1.9484-0.45637-3.9412-1.538-5.6046-0.98346-1.4715-2.5547-2.4308-4.0955-3.2301-0.3898-0.19727-1.0636-0.50558-0.55759 0.15653 0.01153 0.51427-0.49139 1.3624 0.25484 0.57051 1.0664-0.2127 2.2031-0.46614 2.7415-1.55 1.0503-1.5447 2.0816-3.1378 2.7542-4.8887 0.36537-1.0137 0.24362-2.1078 0.22052-3.16-0.05871-0.96464-1.5089-1.1705-1.8743-0.29969-0.07652 0.15399-0.1106 0.32837-0.09917 0.49987z"/>
  <path d="m21.429 21.606c-2.9187-0.06803-5.8348 0.20598-8.754 0.08493-1.7277-0.01604-3.4483 0.20701-5.1766 0.09277-0.71842 0.03209-1.931-0.10383-2.3366-0.09702 0.40159 0.17911 0.78576 1.0641 0.74034 0.1331 0.25638-1.5672 0.5483-3.3207 1.8745-4.3688 1.1114-1.0324 2.439-1.8196 3.8528-2.3615 1.3801 0.22022 1.6107-2.2422 0.15672-2.192-1.4231-0.36336-3.041-0.93962-3.682-2.384-0.7172-1.5316-2.0774-2.9692-1.8674-4.784 0.25922-0.8291 0.28951-2.5573-1.0657-2.1702-1.1226 0.43538-0.89412 1.8428-0.94371 2.8118 0.11727 2.2608 1.657 4.0663 2.6561 5.999 0.79857 1.0742 2.0758 1.6667 3.2881 2.1507 0.55758 0.14048 1.6167 0.66355 0.95703-0.24163-0.25598-0.44377 0.36322-1.245 0.38386-1.2118-1.6298 0.37752-3.0629 1.3339-4.3946 2.3086-1.387 1.0389-2.4917 2.5084-2.8057 4.2396-0.25912 1.0767-0.58281 2.2027-0.4216 3.3127 0.538 1.1055 2.0099 0.71677 3.011 0.83373 2.4731 0.16797 4.943-0.17028 7.4161-0.04532 2.1123 0.01288 4.2221-0.11659 6.3341-0.13145 1.1546 0.63942 2.6376-1.1947 1.2749-1.8788-0.1557-0.07056-0.32753-0.10096-0.49778-0.10041z"/>
 </g>
</svg>
