<?xml version="1.0" encoding="UTF-8"?>
<!-- Created with Inkscape (http://www.inkscape.org/) -->
<svg width="100" height="100" version="1.1" viewBox="0 0 26.458 26.458" xmlns="http://www.w3.org/2000/svg">
 <g fill="#fff">
  <path d="m8.443 10.967c0.6927 0.90417 2.1237 1.8962 3.1765 2.3604 0.79457 0.28239 2.0961 0.21518 2.9168 0.14168 1.0274-0.21257 2.3988-0.70109 3.2305-1.3325 0.75932-0.82048 1.0181-2.7223 1.1329-3.8108-0.090682-0.63618-0.33421-1.6441-0.77832-2.1983-0.31692-0.41061-1.3087-0.26022-1.46 0.19466-0.10882 0.32715 0.0056 0.67476-0.02834 1.0124-0.17358 1.2463-0.22709 2.9125-1.4976 3.5478-0.5972 0.33901-2.1794 0.98233-3.7164-0.50637-0.59558-0.49018-1.2172-0.89105-1.3113-1.66-0.18925-0.78524-0.24128-1.6977-0.35887-2.4888-0.23936-0.60034-2.0872-0.32254-2.1331 0.32598 0.043373 1.6597-0.11021 3.0591 0.82736 4.414z" stroke-width=".1823"/>
  <g stroke-width=".26458">
   <path d="m2.075 3.9967c-0.10598 3.2484-0.53207 6.5262 0.020816 9.7567 0.041567 2.6464-0.14747 5.3199 0.34376 7.9375 0.77427 1.3194 2.5819 0.86566 3.8586 0.9594 1.0581-0.11591 2.9032 0.50121 3.2449-0.92186-0.19435-1.3036-1.8295-1.3981-2.8174-1.0278-0.76065 0.16195-2.4192-0.42085-2.6038 0.15447 0.5448 0.15876-0.20039-1.421 0.018483-1.9096-0.085082-2.66 0.058082-5.3332-0.30893-7.9772-0.13696-2.4789 0.31972-4.9586 0.17853-7.43-0.32761-0.99283-2.1301-0.6131-1.935 0.45855z"/>
   <path d="m3.3357 4.3344c3.5655 0.20662 7.1371-0.23661 10.699-0.06004 1.6218 0.19511 3.2827-0.18755 4.8779 0.25357 1.315 0.199 2.6878-0.14711 3.9669 0.24979 1.455 0.17137 1.8315-2.1028 0.26139-2.1143-1.4711-0.29671-2.9964 0.20011-4.4522-0.24782-1.7486-0.30388-3.5247 0.075024-5.2775-0.19548-3.4396-6.02e-4 -6.8819 0.25181-10.324 0.13674-1.2099 0.087007-0.93207 2.1791 0.24859 1.9775z"/>
   <path d="m18.122 22.784c1.8858-0.02674 3.7865 0.07799 5.6557-0.23226 1.356-0.66715 0.68214-2.3729 0.75461-3.5516-0.14314-5.1677-0.2018-10.337-0.24269-15.507-0.48677-1.6583-2.8209-0.045824-1.9747 1.1976 0.0069 5.4765 0.10409 10.953 0.29502 16.426 0.71463-0.29893 0.44677-0.72697-0.20603-0.41203-1.5765 0.18673-3.1716-0.05417-4.7459 0.16478-1.0222 0.3207-0.58591 2.0918 0.46394 1.914z"/>
   <path d="m12.415 15.992c-0.01233 0.37481-0.03901 0.7494-0.06226 1.1237-0.03086 0.5501-0.07674 1.0991-0.11406 1.6488-0.03992 0.53395-0.06514 1.0686-0.08073 1.6037-2e-3 0.33628-0.02173 0.67193-0.03363 1.0079-0.0015 0.27192-0.01665 0.54294-0.03962 0.81375-0.02352 0.2737-0.03302 0.54831-0.03873 0.82287-0.0034 0.19723-0.0032 0.39449-0.0031 0.59174-0.0049 0.07529-0.01262 0.0819-0.03019 0.17397-0.01488 0.08883-8e-3 0.04372-0.0205 0.13536-0.18035 1.4026 1.8033 1.6577 1.9836 0.25506 1.15e-4 -0.0093-1.52e-4 -0.0031 0.0019-0.01828 0.03377-0.18081 0.06788-0.36187 0.06511-0.54689-7.2e-5 -0.18329-3.44e-4 -0.36659 0.0027-0.54986 0.0047-0.23189 0.01222-0.46386 0.032-0.69502 0.02573-0.30368 0.04332-0.6077 0.04554-0.91257 0.01179-0.33999 0.03194-0.67967 0.03402-1.02 0.01473-0.50934 0.0388-1.0181 0.07698-1.5263 0.03758-0.55353 0.08379-1.1064 0.11481-1.6604 0.02578-0.41558 0.05628-0.83139 0.06611-1.2477 0-1.4142-2-1.4142-2 0z"/>
   <path d="m12.576 14.721c-0.25048 0.17347-0.49821 0.35087-0.74912 0.52377-0.2727 0.17868-0.55784 0.33726-0.83633 0.50665-0.2962 0.18346-0.58052 0.38463-0.86853 0.58036-0.27883 0.1978-0.57395 0.37058-0.85971 0.55778-0.22383 0.14346-0.43958 0.29839-0.64954 0.46134-0.15514 0.10546-0.29273 0.23419-0.44836 0.33893-1.1622 0.80573-0.022743 2.4494 1.1395 1.6436 0.18387-0.12905 0.3558-0.27293 0.53766-0.40458 0.16738-0.131 0.34062-0.25368 0.51967-0.36829 0.29386-0.19428 0.59979-0.37021 0.8864-0.57563 0.25955-0.17699 0.51604-0.35834 0.78253-0.52497 0.31116-0.18941 0.63057-0.36554 0.93283-0.56924 0.14504-0.10025 0.28818-0.20307 0.43319-0.30335 0.04638-0.03207 0.1748-0.11823 0.22746-0.16003 0.0054-0.0043-0.01243 0.0057-0.01865 0.0086 1.2127-0.7276 0.18368-2.4426-1.029-1.715z"/>
   <path d="m12.605 15.929c0.07189 0.07272 0.13934 0.15012 0.21568 0.21816 0.07181 0.064 0.15216 0.11772 0.22781 0.17712 0.06574 0.05161 0.1317 0.10294 0.19636 0.1559 0.19359 0.15856 0.37176 0.32879 0.54987 0.50419 0.27626 0.27683 0.55586 0.55053 0.82634 0.83304 0.03137 0.03446 0.06353 0.06821 0.09412 0.10337 0.10982 0.12622 0.21582 0.25348 0.33754 0.36907 0.10263 0.09747 0.17543 0.15575 0.28135 0.24417 0.19006 0.16207 0.3981 0.3005 0.60695 0.43668 0.09088 0.05797 0.174 0.1268 0.26056 0.19093 0.1464 0.10433 0.30809 0.18328 0.46389 0.27186 0.02607 0.01363 0.15983 0.11407 0.05747 0.03989 0.0031 0.0032 0.01259 0.01261 0.0092 0.0097-0.0087-0.0076-0.01617-0.01652-0.02522-0.02365-3e-3 -0.0024 0.0094 0.01203 0.0068 0.0092-0.0078-0.0087-0.02907-0.03643-0.02252-0.02678 0.04437 0.06543 0.08544 0.10674 0.14029 0.16934 0.97833 1.0212 2.4225-0.36239 1.4442-1.3836 0.01755 0.02135 0.06864 0.08667 0.05204 0.06456-0.08146-0.10852-0.16366-0.21678-0.26738-0.30574-0.1265-0.10954-0.26113-0.20932-0.40706-0.29188-0.08685-0.04929-0.17721-0.10288-0.26581-0.1433-0.11858-0.08624-0.23137-0.18072-0.35669-0.25748-0.14376-0.09294-0.28787-0.18621-0.41826-0.29768-0.07393-0.06109-0.1481-0.11914-0.21493-0.18814-0.09981-0.10305-0.09061-0.10493-0.20641-0.23665-0.04129-0.04697-0.08454-0.09218-0.12681-0.13828-0.2849-0.29658-0.57777-0.58544-0.8688-0.87599-0.22891-0.22405-0.45989-0.44126-0.70822-0.64398-0.07428-0.06064-0.14963-0.11996-0.22551-0.17858-0.03821-0.02952-0.06863-0.08123-0.1167-0.08581-0.03324-0.0032 0.03987 0.05359 0.0598 0.08038-0.84852-1.1314-2.4485 0.06863-1.6 1.2z"/>
  </g>
 </g>
</svg>
