<?xml version="1.0" encoding="UTF-8"?>
<!-- Created with Inkscape (http://www.inkscape.org/) -->
<svg width="420" height="180" version="1.1" viewBox="0 0 111.12 47.625" xmlns="http://www.w3.org/2000/svg">
 <g fill="#ddf" stroke-width=".19245">
  <path d="m6.1075 7.3289c-6.4382 1.3336 1.3294 7.6077 3.1393 1.924 8.3116-5.4405 19.054 0.04888 25.515 5.9841 7.3244 5.4103 7.6208 15.481 14.193 21.377 7.8402 7.4913 20.211 8.5626 29.924 4.6814 6.4316-3.1279 13.57-9.9513 21.028-6.0301 3.2555 2.5716 9.529 11.479 6.0034 2.4085-4.5957-9.0187-16.077-6.2079-22.994-1.8506-10.041 5.872-24.67 6.1272-33.228-2.4944-4.4386-7.1867-7.0543-15.859-14.044-21.304-7.6154-6.7529-20.541-11.777-29.536-4.6954z"/>
  <path d="m53.152 5.6034c-6.9181-4.5115-17.977-1.7145-22.238 5.0363-4.1479 7.0498-1.5872 18.393 7.0984 20.438 7.5993 2.5912 18.426 1.6664 22.179-6.4952 2.5288-5.7239-0.8468-17.16-6.9059-17.538 1.4191 5.3156 7.9274 11.186 3.8921 17.323-4.437 6.1581-14.056 6.5439-20.229 2.952-7.9002-4.479-5.6732-17 2.2617-20.149 3.7996-3.5824 11.927 3.2464 13.942-1.5668z"/>
  <path d="m94.875 21.817c-1.7396 3.4415-6.2251 6.9601-7.6185-0.26209 2.5201-4.8533 6.7273-0.97273 7.0469 1.87 2.1138 3.1292 7.6484 5.9605 10.232 1.8244 2.489-3.6093-0.54679-9.8665-5.2517-8.5239-2.7019 0.20934-6.7678 5.3852-2.8346 6.5133 1.4765-1.1631 3.5115-6.8235 6.4011-2.6239 2.722 5.5893-5.2039 4.6221-6.1462 1.0559-2.1291-3.4836-6.6364-7.2263-10.663-4.2311-3.502 2.9757-0.98138 8.9572 2.9268 10.165 3.3711 0.83566 7.5784-1.8445 7.9796-5.3012-0.2263-0.91448-1.4256-0.67491-2.0725-0.48624z"/>
  <path d="m74.953 38.176c-1.8205-0.24489-2.246-4.5194-0.35194-1.1695-0.72009 2.0705 1.2119 4.7413 1.8313 1.6269 0.7392-2.9944-1.8929-6.2298-4.4789-5.5632-3.1724 4.9706 2.9963 9.5286 3.4945 5.6978-0.24162-0.16169-0.18316-0.55806-0.49507-0.59197z"/>
  <path d="m82.297 35.41c-2.4099-0.32-3.7782-4.9585-4.2469-5.2229 2.4389 1.3685 1.8181 6.7471 4.483 6.1436 1.0766-3.2662-1.8807-8.2786-5.6191-8.4317-1.7142 2.3631 0.45902 7.123 2.8402 8.4577 1.3542 2.3458 5.7741 0.66665 2.5428-0.94672z"/>
  <path d="m77.631 40.871c0.44524 2.4445 4.5011 4.5778 6.8665 2.46 0.34106-2.6628-6.7064-5.558-4.8631-2.0729 2.7743 0.75488 2.9436 2.0489 1.4351 1.1359-1.5085-0.91298-2.7714-4.0955-3.4384-1.523z"/>
  <path d="m84.738 37.56c2.1142 2.2512 4.4324 6.9841 9.1476 4.659 0.66034-3.8994-4.9765-5.6454-7.9211-6.588-1.597 3.3476 5.3277 2.3299 5.6571 6.2424 2.9405-1.0088-0.50916-0.49373-1.5452-1.815-1.036-1.3212-5.9822-5.4587-5.3384-2.4984z"/>
  <path d="m105.55 33.794c0.92025-0.54581 2.7372-1.6316 1.2017-0.31973s-4.258 3.0432-1.8424 2.9427c2.8454-0.15715 4.4344-2.7667 3.9899-5.9692-1.8041 0.65446-7.989 3.5094-4.9385 5.1966 0.99395-0.29881 1.3677-1.4444 1.5893-1.8504z"/>
 </g>
</svg>
