<?xml version="1.0" encoding="UTF-8"?>
<!-- Created with Inkscape (http://www.inkscape.org/) -->
<svg width="100" height="100" version="1.1" viewBox="0 0 26.458 26.458" xmlns="http://www.w3.org/2000/svg">
 <g fill="#fff" stroke-width=".060213">
  <path d="m12.814 3.2826c-0.095556 1.0033-1.1862 3.4391-2.0339 4.091-1.0094 0.75864-2.7544 0.78386-3.9692 1.1773-1.6597 0.60152-3.0515 1.9332-3.5383 3.6546-0.4376 1.4367-0.91555 3.1364 0.00752 4.4915 1.0102 1.7195 2.573 3.0439 4.348 3.9274 0.99111 0.58149 2.1175 0.96714 3.0265 1.6613 0.47574 0.69438 0.99631 2.0967 1.1151 2.8145 0.95199-0.28031 1.5408-0.34228 1.779-1.5947 0.85578-1.1097 2.3238-1.3845 3.513-2.0049 1.3868-0.67237 2.8621-1.1273 4.2848-1.7064 1.4327-0.80435 2.512-2.3291 2.4991-4.0133 0.38576-1.3569 0.04488-2.8404-0.87014-3.9083-0.86157-1.3982-2.5823-1.7241-3.9406-2.4357-0.95737-0.42401-2.0586-0.60407-2.7826-1.4313-0.39513-0.54946-0.90457-1.3403-0.68692-1.5039-0.16641-1.5107-0.50587-2.9658-0.57851-4.4788-0.42033-1.5548-2.4435-0.42323-1.8832 0.8944-5.58e-4 1.5397 0.34448 3.1247 0.74326 4.6272 0.74365 1.0308 1.1417 2.0032 2.2087 2.7213 1.0572 0.57706 2.2559 0.84101 3.3188 1.4173 0.85467 0.3684 1.8275 0.67648 2.2564 1.5891 0.83572 0.97708 0.29008 2.3151 0.13306 3.4244-0.43062 0.91934-1.296 1.5537-2.2757 1.7752-2.0623 0.72782-4.0606 1.637-6.0224 2.5991-1.1292 0.63722-1.3019 2.7758-1.5903 4.0108 0.75598 0.0032 1.5715 0.19822 1.2028-1.3006 0.01567-0.96356-0.45562-1.8595-0.92537-2.6714-0.82374-0.93163-2.0827-1.2982-3.138-1.9025-1.4183-0.72583-2.8262-1.5755-3.7312-2.9298-1.0766-1.0604-0.49895-2.6146-0.067013-3.8307 0.47685-1.46 2.0072-2.0393 3.3087-2.5474 1.1879-0.51023 2.9121-0.6358 3.914-1.4333 0.95256-1.1491 2.2946-3.9453 2.2579-5.4201-0.19988-1.1562-1.9599-0.94175-1.8831 0.23671z"/>
  <path d="m16.506 9.6115c-0.2562 0.017201-0.51104 0.048963-0.76731 0.066561-0.46048 0.023178-0.92166 0.026063-1.3826 0.029006-0.07181 3.028e-4 -0.14362 6.551e-4 -0.21543 9.075e-4 -0.16931 5.542e-4 -0.25036-0.0019-0.42449 0.00914-0.24638 0.015598-0.48675 0.052441-0.72957 0.095102-0.31899 0.070048-0.63587 0.15542-0.94168 0.27105-0.15921 0.0602-0.25028 0.10311-0.40156 0.17055-0.1776 0.07744-0.34283 0.17229-0.49799 0.28856-0.09667 0.07245-0.18054 0.16018-0.26608 0.24488-0.14705 0.12435-0.31178 0.22753-0.4721 0.33398-0.35408 0.24223-0.68084 0.54003-0.91061 0.90588-0.046474 0.074-0.083473 0.15354-0.12521 0.23031-0.17274 0.40651-0.29913 0.86399-0.12263 1.2975 0.060018 0.14743 0.16111 0.27459 0.24166 0.41188 0.093143 0.09288 0.17868 0.19408 0.27943 0.27865 0.2017 0.1693 0.46191 0.31738 0.69026 0.44602 0.32481 0.18299 0.65807 0.34824 0.99388 0.50971 0.37225 0.17411 0.75771 0.32172 1.1613 0.40472 0.27034 0.0556 0.36766 0.05886 0.6431 0.08772 0.52057 0.04017 1.0418 0.07239 1.5629 0.10462 0.0027 0.0073 0.21119 0.0123 0.22189 0.03794 4.53e-4 1e-3 -0.04178-8.57e-4 -0.04598 4e-6 0.0103 0.04101 0.04482 0.03436-0.0041 0.01419-0.0023-9.52e-4 0.0011 0.0059-8.57e-4 0.0074-0.0044 0.0033-0.0096-0.0057-0.01345-0.0097-0.01482 0.01391-0.01789-0.09525-0.02475-0.08956-0.01829 0.01516-0.01038 0.0464-0.01699 0.06922-0.0073 0.02534-0.01656 0.0501-0.02485 0.07515-0.01941 0.04706-0.03861 0.10373-0.07055 0.1451-0.01117 0.01446-0.02785 0.02374-0.04078 0.03665-0.03079 0.03073-0.05881 0.06419-0.0903 0.09419-0.0865 0.08239-0.13544 0.11645-0.23001 0.18981-0.14142 0.10466-0.28276 0.21165-0.44106 0.28998-0.07902 0.0391-0.12667 0.05704-0.20933 0.09119-0.38786 0.14776-0.78821 0.26494-1.1952 0.34716-0.09812 0.01983-0.19709 0.03524-0.29563 0.05286-0.475 0.07108-0.95546 0.07892-1.4339 0.10785-0.29042 0.01844-0.57885 0.05821-0.86844 0.08535-0.209 0.01959-0.33035 0.02648-0.54145 0.0409-0.36747 0.02244-0.73535 0.0385-1.1034 0.04586-0.13613-0.0019-0.27167 0.0071-0.40685 0.02233-1.338 0.15276-1.122 2.045 0.21604 1.8922 0.076381-9e-3 0.15194-0.01283 0.22936-0.01043 0.39875-0.0082 0.7973-0.02528 1.1954-0.04995 0.46621-0.03219 0.93042-0.08103 1.3955-0.12531 0.55373-0.03423 1.11-0.04363 1.6588-0.13508 0.12598-0.02323 0.25249-0.04376 0.37794-0.06971 0.5161-0.10681 1.0238-0.25764 1.5143-0.45019 0.16613-0.0713 0.22791-0.09407 0.3898-0.17907 0.25246-0.13255 0.48522-0.29822 0.71109-0.47132 0.07516-0.06151 0.15295-0.11994 0.22549-0.18451 0.25478-0.22678 0.47784-0.47859 0.64913-0.77507 0.09186-0.15899 0.13085-0.28769 0.19229-0.45704 0.02009-0.07216 0.04281-0.14364 0.0603-0.21648 0.08159-0.33994 0.08943-0.65256-0.01878-0.98518-0.02023-0.05483-0.03775-0.11074-0.06068-0.1645-0.13217-0.30989-0.34411-0.57425-0.61049-0.77936-0.15391-0.10431-0.19594-0.14274-0.37005-0.2189-0.2539-0.11106-0.5276-0.15379-0.80187-0.17488-0.49739-0.03074-0.99479-0.06193-1.4918-0.09888-0.14408-0.01319-0.24946-0.01905-0.38962-0.04506-0.27247-0.05058-0.52962-0.15266-0.77984-0.26948-0.29286-0.14002-0.58152-0.28565-0.86595-0.44226-0.07934-0.04369-0.15787-0.08887-0.23657-0.13371-0.04159-0.0237-0.08115-0.05121-0.12431-0.07195-0.0088-0.0042-0.01943-0.0011-0.02915-0.0018 0.05094 0.17378 0.06648 0.2245 0.02672 0.40411-0.0105 0.04744 0.02942-0.1531 0.01874-0.11385 0.0051-0.01667 0.01764-0.06137 0.02772-0.07536 0.09727-0.13487 0.2289-0.25036 0.36638-0.34165 0.26275-0.17466 0.5299-0.34757 0.75828-0.56705 0.01856-0.01838 0.03747-0.03639 0.05567-0.05514 0.0059-0.0061 0.02305-0.02274 0.01481-0.02073-0.01214 3e-3 -0.04453 0.02189-0.03471 0.01417 0.02669-0.021 0.15414-0.08069 0.16693-0.08696 0.05442-0.02455 0.19466-0.08881 0.2527-0.11124 0.21103-0.08154 0.42994-0.14141 0.64966-0.19408 0.15577-0.0292 0.31108-0.05503 0.46939-0.06649 0.1382-0.01 0.21103-7e-3 0.35477-0.0075 0.07323-2.43e-4 0.14647-6.04e-4 0.2197-9.06e-4 0.50124-0.0032 1.0028-0.0066 1.5034-0.03361 0.16474-0.0117 0.32864-0.026 0.49291-0.04286 0.03922-4e-3 0.07848-0.0076 0.11769-0.01177 0.02008-0.0021 0.04087-9.53e-4 0.06017-7e-3 0.01162-0.0035-0.02431-2.44e-4 -0.03646-3.78e-4 1.3467 0 1.3467-1.9045 0-1.9045z"/>
 </g>
</svg>
