<?xml version="1.0" encoding="UTF-8"?>
<!-- Created with Inkscape (http://www.inkscape.org/) -->
<svg width="100" height="100" version="1.1" viewBox="0 0 26.458 26.458" xmlns="http://www.w3.org/2000/svg">
 <path d="m2.8135 7.0405c1.9033 2.7471 4.2956 5.1653 5.7982 8.181 1.0333 1.9438 2.1524 3.8522 3.4514 5.6307 0.50424 0.88024 1.6452 1.473 2.5086 0.6856 1.4653-1.2767 2.0325-3.2245 3.0343-4.8344 1.0842-1.861 2.1529-3.7337 3.0686-5.6848-0.25833 0.53071 0.30924-0.74162 0.55796-0.8371 0.5463-1.0514 1.5633-1.751 2.1276-2.7825 0.0794-0.62105 0.27902-0.24229 0.12816-0.85626-0.049304-1.0535-1.0527-1.1998-1.9003-1.1226-3.681-0.011472-7.3633 0.016478-11.044-0.0098898-1.0009-0.1589-2.0112-0.24297-3.0165-0.33722-0.94183-0.19698-2.0726-0.20059-2.9006 0.12705-0.94278-0.15031-2.1877 0.66547-1.4777 1.6836 0.6485 0.74475 1.8786 0.23836 2.5802 0.062699 0.96484-0.087703 1.8873 0.25686 2.8502 0.22134 1.1178 0.17406 2.241 0.294 3.3736 0.25241 3.4368 0.00912 6.8741-0.024211 10.31 0.018717-0.7706-0.067975-0.38603-2.2823-0.73067-0.89802 0.02182 0.15245-0.90004 1.0159-1.2662 1.5043-0.48323 0.79493-1.1732 1.4541-1.505 2.3386-1.317 2.807-3.0423 5.3948-4.4069 8.177-0.08554 0.46116-1.1088 1.2506-0.74553 1.3983 0.41874 5e-3 0.72422 0.46206 0.23849-0.1027-0.96922-1.1523-1.6861-2.4931-2.4795-3.7681-1.1729-2.1267-2.2841-4.3086-3.8523-6.1818-1.0772-1.3706-2.1542-2.7454-3.1883-4.1467-0.821-0.82596-2.1716 0.33943-1.5147 1.2807z" fill="#fff" stroke-width=".26458"/>
</svg>
