<?xml version="1.0" encoding="UTF-8"?>
<!-- Created with Inkscape (http://www.inkscape.org/) -->
<svg width="100" height="100" version="1.1" viewBox="0 0 26.458 26.458" xmlns="http://www.w3.org/2000/svg">
 <path d="m12.273 2.5873c-0.87127 2.1266-1.7851 4.2469-2.8814 6.2669-0.85359 1.426-2.0631 2.6116-3.4365 3.5323-1.406 1.2848-2.0979 3.2071-2.0225 5.0913-0.060972 1.698-0.081986 3.6908 1.2054 4.9771 1.4079 1.2001 3.1797 2.0343 5.0462 2.12 2.1723 0.15368 4.4396 0.6814 6.5414-0.16416 1.1611-0.5103 2.1313-1.3734 3.0678-2.2133 1.3669-1.3637 2.4272-3.2396 2.2218-5.2297-0.16997-2.1422-0.66289-4.454-2.237-6.0246-0.76416-0.65551-1.7814-0.9819-2.4038-1.8156-0.82137-1.0109-1.5661-2.1322-1.9973-3.3654-0.18025-1.2025-0.70182-2.2792-0.68195-3.4871-0.18271-1.4658-2.4174-0.91261-2.1625 0.48051-0.0381 1.2446 0.58935 2.388 0.75915 3.6128 0.47593 1.5821 1.4704 2.957 2.47 4.2502 0.81521 1.0909 2.3209 1.4283 3.0293 2.571 0.83654 1.4591 1.1273 3.2054 1.0124 4.8655-0.46659 1.8893-2.0648 3.2266-3.6532 4.2018-1.9236 0.93243-4.0803 0.1456-6.1021 0.13475-1.3094-0.13943-2.5139-0.77997-3.527-1.5961-0.67379-1.5635-0.45003-3.3282-0.23644-4.9625 0.3371-1.3224 1.4863-2.133 2.5213-2.8914 2.1218-1.8299 3.3079-4.4317 4.3832-6.9564 0.46548-1.0798 1.0797-2.1441 1.248-3.3168-0.047318-1.2486-2.0175-1.336-2.164-0.081391z" fill="#fff" stroke-width=".28821"/>
</svg>
