<?xml version="1.0" encoding="UTF-8"?>
<!-- Created with Inkscape (http://www.inkscape.org/) -->
<svg width="100" height="100" version="1.1" viewBox="0 0 26.458 26.458" xmlns="http://www.w3.org/2000/svg">
 <g fill="#fff" stroke-width=".23899">
  <path d="m8.9356 24.383c-0.28847-1.4252-0.7345-2.8618-0.6547-4.3271 0.46799-1.1433 1.2848-2.1046 2.0113-3.0926 0.60355-0.85511 1.6322-1.3846 2.0268-2.3803 0.25246-0.95814 0.04758-2.049-0.76639-2.6858-0.78754-0.52535-0.92715-1.7527-1.8789-1.9827-1.3603 0.022335-0.98577 1.6683-0.26052 2.2807 0.37338 0.68514 1.3821 1.029 1.1836 1.8325-0.14424 0.18934-0.86592 0.84802-1.2054 1.2205-0.97269 1.1018-1.8361 2.3112-2.5573 3.591-0.69438 1.271-0.28521 2.7553-0.061023 4.0945 0.32702 0.88917 0.092032 2.2906 1.1399 2.6973 0.70023 0.16322 1.3264-0.58847 1.0226-1.248z"/>
  <path d="m10.287 10.483c0.01706-1.2403 1.2612-1.9642 2.2956-2.3338 0.71954-0.17234 1.6227-0.54678 2.2773-0.029147 0.85286 0.98236 1.238 2.4924 0.7088 3.7125-0.42776 0.81567-1.902 2.0823-0.49839 2.7596 1.0239 0.24259 1.4471-0.98899 1.9431-1.6448 1.125-1.9067 0.59434-4.4973-0.86113-6.0811-1.004-1.058-2.5934-0.89292-3.8664-0.51864-1.7464 0.5131-3.5764 1.7887-3.7824 3.7376-0.51269 1.2812 1.6564 1.9571 1.7784 0.51389l0.0052-0.11601z"/>
  <path d="m14.105 14.85c1.0187 1.0107 1.4265 2.4273 2.0854 3.6676 0.49786 1.0154 0.3854 2.1706 0.38238 3.2633 0.2155 1.3705 2.202 0.6835 1.8169-0.55045 0.06779-1.3562-0.11487-2.7427-0.78012-3.9469-0.69046-1.3213-1.1728-2.8401-2.3729-3.8062-0.85394-0.50376-1.788 0.61618-1.1316 1.3727z"/>
  <path d="m9.424 25.196c0.41664-0.2926 1.3424-0.69931 2.0248-0.89798 0.78867-0.37654 1.9918-0.16938 2.6379-0.21199 0.66484 0.27713 1.3949 0.88404 2.2798 0.97345 0.84 0.16414 2.3328 0.62372 2.4824-0.64011-1.19e-4 -1.1358-1.3355-0.90274-2.0939-1.1248-1.032-0.12083-1.7723-1.1319-2.8637-1.0231-1.0905 0.0057-2.2339-0.1009-3.2459 0.39796-1.0304 0.40492-2.4884 0.75006-2.8549 1.9254-0.084535 0.8806 1.1188 1.3363 1.6335 0.60114z"/>
  <path d="m19.077 24.275c-0.28145-0.83805-0.02488-2.0758-0.92135-2.5544-1.1544-0.33547-1.3595 1.0232-1.0701 1.824 0.0336 0.8868 0.65616 2.2705 1.7094 1.4489 0.19704-0.18236 0.28485-0.45593 0.28199-0.71853z"/>
  <path d="m9.7824 4.7347c2.1054-0.21315 4.2548-0.51149 6.3519-0.090005 1.4418-0.041639 0.9454-2.1171-0.34697-1.8942-1.911-0.26581-3.8427-0.056934-5.7506 0.13883-0.82366-0.28302-2.2496 1.0644-1.0252 1.8048 0.23544 0.12941 0.52208 0.1257 0.77088 0.040589z"/>
 </g>
</svg>
