<?xml version="1.0" encoding="UTF-8"?>
<!-- Created with Inkscape (http://www.inkscape.org/) -->
<svg width="100" height="100" version="1.1" viewBox="0 0 26.458 26.458" xmlns="http://www.w3.org/2000/svg">
 <g fill="#fff" stroke-width=".063232">
  <path d="m4.498 17.781c1.0708 1.8917 1.4908 4.0716 2.5116 5.987 0.77105 0.55693 1.887 0.18425 2.0367-0.81737 0.63249-1.5761 1.362-3.1118 2.1626-4.6091-0.22311 0.72903-1.7114-0.10019-0.8248 0.83798 0.72947 1.3536 0.99744 2.9532 1.9708 4.1669 1.1034 0.95372 2.0583-0.48123 2.3704-1.4374 0.65077-1.0365 0.98892-2.2364 1.6966-3.2391 0.62878-1.0077-0.53726 0.59901-1.1418-0.07731 1.0145 1.2342 1.5163 2.7912 2.3172 4.1528 0.13847 0.31355 0.94895 1.6369 1.8762 0.96416 0.84675-0.82561 1.094-2.1251 1.544-3.2045 0.26929-0.75266 0.76533-1.6757 1.014-2.287 0.55535-0.34201 0.17746-2.2248-1.0276-1.7515-0.55909 0.16813-0.66786 0.83149-0.66785 0.70503-0.57975 1.1308-1.0919 2.301-1.4956 3.5096-0.11466 0.47987-1.1678 1.9923-0.06913 1.2101 0.6562-0.11786 1.1606 0.80162 0.58465-0.12317-0.882-1.5017-1.4532-3.2205-2.6244-4.5474-0.6581-0.90499-1.9671-0.34571-2.11 0.58035-0.78423 1.1086-1.1486 2.4433-1.8884 3.5796-0.78352 1.0158 0.87601-0.27964 1.1342 0.71946-0.95651-1.5714-1.2041-3.5286-2.4571-4.9301-0.96335-1.0035-2.1343 0.0353-2.4153 1.0805-0.70509 1.3997-1.3719 2.827-1.9319 4.2872 0.28104-0.76792 1.8793 0.27818 1.4975-0.13193-0.85256-1.8439-1.3087-3.8973-2.3429-5.6324-0.64556-1.0441-2.3027-0.07249-1.7197 1.0075z"/>
  <path d="m6.4685 4.0086c4.9926 0.52754 9.0184 0.11417 14.03 0.14628 1.6732 0.10581 1.3354-2.3283-0.18266-1.9996-4.9109-0.030343-8.8352 0.37428-13.727-0.14141-1.3018-0.11237-1.4226 1.9402-0.11991 1.9948z"/>
  <path d="m5.2601 3.0927c-0.076327 1.7341 0.45932 3.4308 1.0914 5.0223 0.67091 1.5936 1.3971 3.2071 2.6055 4.4793 1.1069 1.2091 2.2577 2.4556 3.7705 3.1523 0.95252 0.87385 2.3681-0.9429 1.1329-1.6454-0.88288-0.46102-1.7126-1.0128-2.3887-1.7578-1.36-1.273-2.4697-2.8212-3.0733-4.5936-0.60787-1.2282-1.0076-2.5862-1.133-3.9503 0.37817-1.1095-0.89746-2.4791-1.8208-1.3532-0.13071 0.18818-0.18522 0.41991-0.18457 0.64633z"/>
  <path d="m13.457 16.005c1.1399-0.12101 1.7693-1.2449 2.7014-1.7894 1.8462-1.2156 2.8043-3.2877 3.6742-5.2375 0.86313-1.2765 1.2396-2.7853 1.4261-4.2942 0.43861-0.9595-0.19234-2.6313-1.4389-1.9465-0.76745 0.73587-0.39911 1.9851-0.75679 2.935-0.21819 1.3379-1.1198 2.4017-1.5865 3.6498-0.62799 1.3555-1.4529 2.6766-2.7596 3.4689-0.58581 0.34105-1.4289 1.3516-1.5084 1.2365-1.2141 0.18211-0.97351 2.088 0.24851 1.9775z"/>
  <path d="m10.553 9.1238c0.39324 0.00148 0.78614 0.00243 1.1791-0.012221 0.52762-0.036505 1.053-0.10079 1.5787-0.15796 0.31902-0.0378 0.63993-0.054796 0.96087-0.064614 0.19652-0.00533 0.39313-0.00519 0.58971-0.00502 0.15421 2.91e-4 0.30842 6.085e-4 0.46264 7.408e-4 0.06905-0.00411 0.1258 0.00106 0.17156 0.00712 1.4049 0.16229 1.6344-1.8245 0.22952-1.9868-0.13267-0.01456-0.26565-0.024516-0.39923-0.020336-0.15426-1.423e-4 -0.30852-4.497e-4 -0.46278-7.408e-4 -0.21785-1.823e-4 -0.43574-1.489e-4 -0.65353 0.00598-0.37254 0.011729-0.74499 0.031959-1.1153 0.075411-0.48012 0.052401-0.96001 0.10973-1.4415 0.14777-0.36645 0.015711-0.73305 0.010139-1.0998 0.010644-1.4142 0-1.4142 2 0 2z"/>
 </g>
</svg>
