<?xml version="1.0" encoding="UTF-8"?>
<!-- Created with Inkscape (http://www.inkscape.org/) -->
<svg width="100" height="100" version="1.1" viewBox="0 0 26.458 26.458" xmlns="http://www.w3.org/2000/svg">
 <path d="m5.8933 10.334c0.077165 1.9602 0.27108 3.9979 1.2014 5.7583 1.0053 1.3123 2.2485 2.5068 3.7764 3.1805 1.1532 0.40984 2.4046 0.26326 3.5956 0.15658 1.491-0.30851 3.1382-0.62518 4.3452-1.5415 1.102-1.1908 1.5757-3.9509 1.7422-5.5307-0.13161-0.92331 0.34865-1.9938-0.2959-2.7982-0.45995-0.59593-1.8994-0.37766-2.119 0.28252-0.15793 0.47481 0.0081 0.97931-0.04113 1.4693-0.25193 1.8088-0.32958 4.227-2.1735 5.149-0.86673 0.49201-3.163 1.4257-5.3937-0.73491-0.86438-0.71141-1.7665-1.2932-1.9031-2.4092-0.27466-1.1396-0.35018-2.464-0.52084-3.6121-0.34739-0.8713-2.1465-0.51715-2.2131 0.42406l-0.00534 0.10071z" fill="#fff" stroke-width=".26458"/>
 <g fill="#fff" stroke-width=".26458">
  <path d="m2.0074 4.6495c-0.10598 3.2484-0.53207 6.5262 0.020816 9.7567 0.041567 2.6464-0.14747 5.3199 0.34376 7.9375 0.77427 1.3194 2.5819 0.86566 3.8586 0.9594 1.0581-0.11591 2.9032 0.50121 3.2449-0.92186-0.19435-1.3036-1.8295-1.3981-2.8174-1.0278-0.76065 0.16195-2.4192-0.42085-2.6038 0.15447 0.5448 0.15876-0.20039-1.421 0.018483-1.9096-0.085082-2.66 0.058082-5.3332-0.30893-7.9772-0.13696-2.4789 0.31972-4.9586 0.17853-7.43-0.32761-0.99283-2.1301-0.6131-1.935 0.45855z"/>
  <path d="m3.2681 4.9873c3.5655 0.20662 7.1371-0.23661 10.699-0.06004 1.6218 0.19511 3.2827-0.18755 4.8779 0.25357 1.315 0.199 2.6878-0.14711 3.9669 0.24979 1.455 0.17137 1.8315-2.1028 0.26139-2.1143-1.4711-0.29671-2.9964 0.20011-4.4522-0.24782-1.7486-0.30388-3.5247 0.075024-5.2775-0.19548-3.4396-6.02e-4 -6.8819 0.25181-10.324 0.13674-1.2099 0.087007-0.93207 2.1791 0.24859 1.9775z"/>
  <path d="m18.055 23.437c1.8858-0.02674 3.7865 0.07799 5.6557-0.23226 1.356-0.66715 0.68214-2.3729 0.75461-3.5516-0.14314-5.1677-0.2018-10.337-0.24269-15.507-0.48677-1.6583-2.8209-0.045824-1.9747 1.1976 0.0069 5.4765 0.10409 10.953 0.29502 16.426 0.71463-0.29893 0.44677-0.72697-0.20603-0.41203-1.5765 0.18673-3.1716-0.05417-4.7459 0.16478-1.0222 0.3207-0.58591 2.0918 0.46394 1.914z"/>
 </g>
</svg>
