<?xml version="1.0" encoding="UTF-8"?>
<!-- Created with Inkscape (http://www.inkscape.org/) -->
<svg width="100" height="100" version="1.1" viewBox="0 0 26.458 26.458" xmlns="http://www.w3.org/2000/svg">
 <g fill="#fff" stroke-width=".063232">
  <path d="m2.4657 21.023c1.5643-0.46331 2.8679-1.5217 4.1682-2.4689 1.012-0.43128 1.481-1.6103 0.71941-2.497-0.75906-0.39059-2.1488-1.7888-1.1289-2.5177 0.85146-0.13993 2.2209-1.3548 2.7687-0.32243 0.72033 0.93393 0.40775 2.0906-0.24089 2.9577-0.97322 0.76992 0.12076 1.916 0.7431 2.5219 0.95138 1.2419 2.1757 2.3894 3.7014 2.8305 1.3951 0.19407 2.1271-1.1166 2.9074-2.0059 0.74006-0.84159 1.692-1.5926 2.0901-2.6665-0.08696-1.0404-1.8409-1.916-0.81958-3.1146 0.5635-0.51474 2.1351-1.4213 2.5121-0.50724 0.54177 0.9737 0.31543 1.9551-0.65588 2.4755-1.1702 1.1294 0.04785 2.3863 1.012 3.0869 0.91038 1.0501 2.3076 1.1084 3.5928 1.1896 1.1224 0.50031 2.6161-0.64776 1.5211-1.7145-0.87066-0.47682-1.997-0.23923-2.9857-0.42022-0.50514-0.11575-1.4602-1.3712-1.6373-1.1486-0.13023 0.78142-0.1948 0.463 0.30612 0.06618 0.81868-0.52263 1.2412-1.4532 1.1256-2.4114-0.03111-1.1813-0.49076-2.3751-1.3614-3.1909-1.58-0.75609-3.4829-0.03228-4.7252 1.0603-0.79952 0.67367-1.1275 1.7471-0.9549 2.7634-0.04455 0.9592 0.93534 2.3705 1.4918 2.443-0.70743-0.29351 0.23919-1.8392-0.51431-0.9244-0.7835 1.0318-1.7897 1.8774-2.5422 2.9421 0.25992 0.37822-1.0306-0.42271-1.3775-0.76248-0.77276-0.70619-1.3294-1.6136-2.1117-2.3105 0.30477 0.02895 0.27504-0.41662 0.24038 0.24541 0.1432 0.52749-0.72979 1.6494 0.03173 0.73718 0.61692-0.87745 1.1241-1.9488 1.0902-3.0425-0.1025-1.1816-0.69765-2.2934-1.4882-3.1571-1.1715-0.89846-2.682-0.11138-3.8841 0.30045-1.1099 0.3985-2.391 1.2575-2.2528 2.5942 0.10202 1.4693 1.0992 2.7111 2.179 3.625 0.70399 0.38495 0.024237-0.07387 0.26675-0.59488 0.07225-1.4366-1.264 0.4108-1.8152 0.64271-0.88215 0.61358-1.8613 1.0645-2.7142 1.6232-0.78207 0.6304-0.14145 1.714 0.7421 1.6723z"/>
  <path d="m10.961 12.5c0.8662-0.43283 2.4099-1.1139 1.858-2.3226-0.63719-0.91483-2.3961-1.5203-1.7725-2.9226 0.45432-1.0801 1.8069-1.6147 2.8299-0.97151 0.84113 0.68011 0.77256 2.0913 0.49158 3.0446-1.2724 0.85044-0.14142 2.1859 0.83366 2.706 0.44813 1.3286 2.7317 0.41579 1.9122-0.82469-0.26437-0.4343-1.3399-1.4628-1.363-1.1113 0.0058 0.47047-0.30798 1.1045 0.23671 0.39262 0.88575-1.262 0.54839-2.9107 0.24421-4.3086-0.47143-1.4395-2.0349-2.3059-3.5072-2.1382-1.4091-0.15666-2.5184 0.86138-3.2615 1.9307-1.0821 1.5386-0.43036 3.7469 1.0453 4.7826 0.32331 0.18818 0.97622 0.90515 0.50413 0.19397-0.09934-0.53774 0.53236-1.3262-0.27598-0.62954-1.2846 0.207-1.9555 2.281-0.28624 2.3492 0.18103-0.01204 0.35924-0.0704 0.51071-0.1707z"/>
 </g>
</svg>
