<?xml version="1.0" encoding="UTF-8"?>
<!-- Created with Inkscape (http://www.inkscape.org/) -->
<svg width="100" height="100" version="1.1" viewBox="0 0 26.458 26.458" xmlns="http://www.w3.org/2000/svg">
 <g fill="#fff" stroke-width=".26458">
  <path d="m3.5882 16.441c0.82859-0.83577 1.5637-1.755 2.2889-2.6799 0.81443-1.058 1.5271-2.1883 2.3265-3.2571 0.28701-0.38384 0.6343-0.7145 0.9592-1.0648 0.13034-0.15197 0.066085-0.071899 0.19193-0.2409 0.82037-1.152-0.80874-2.3121-1.6291-1.1602 0.022918-0.00518 0.00612-0.00246-0.029673 0.04153-0.37256 0.40228-0.76919 0.78363-1.0946 1.2274-0.32419 0.43443-0.33002 0.43562-0.65206 0.89596-0.54425 0.77798-1.0631 1.5745-1.6464 2.3245-0.67501 0.86192-1.3576 1.7202-2.1289 2.4993-1 1 0.41421 2.4142 1.4142 1.4142z"/>
  <path d="m9.9197 8.9145c-0.1682 0.71376-0.45572 0.43448-1.1163 0.72198-0.035107 0.01528 0.041685 0.065096 0.069346 0.09157 0.11589 0.11092 0.24299 0.20965 0.36002 0.31937 0.15046 0.14106 0.29481 0.28849 0.44222 0.43274 0.72705 0.7244 1.3415 1.5492 2.0076 2.3275 0.07088 0.08282 0.84902 0.96488 0.95275 1.0825 0.3355 0.38185 0.67266 0.76279 0.99636 1.1548 0.14154 0.17141 0.27488 0.34194 0.38805 0.53289 0.02746 0.04583 0.03729 0.09363 0.05388 0.14319 0.47276 1.3329 2.3577 0.66426 1.8849-0.66859-0.06596-0.18208-0.1367-0.36256-0.23887-0.52826-0.04926-0.07782-0.09581-0.15744-0.14779-0.23347-0.30725-0.44942-0.68498-0.86406-1.0415-1.2741-0.13079-0.15044-0.26327-0.2994-0.3949-0.4491-0.04798-0.05442-0.88839-1.0074-0.91701-1.0409-0.71101-0.83067-1.3678-1.7104-2.1484-2.4795-0.30298-0.29375-0.68984-0.68923-1.0326-0.94489-0.1678-0.12517-0.32172-0.31279-0.5296-0.33759-1.0183-0.12148-1.1174-0.062611-1.501 0.58901-0.029659 0.050382-0.032362 0.11236-0.048542 0.16854-0.27735 1.3868 1.6838 1.779 1.9612 0.39223z"/>
  <path d="m7.8867 14.626c-0.035208 0.34442-0.049973 0.70788-0.070383 1.0592-0.039071 0.75947-0.068002 1.5194-0.10994 2.2787-0.019336 0.42952-0.055121 0.85804-0.082941 1.287-0.00832 0.14299-0.00466 0.07446-0.011123 0.20557-0.068998 1.4125 1.9286 1.5101 1.9976 0.09758 0.00524-0.10844 0.0022-0.05048 0.00932-0.17386 0.02817-0.43536 0.06454-0.87021 0.084084-1.3061 0.041794-0.75742 0.070982-1.5154 0.10962-2.273 0.022741-0.39187 0.04577-0.7836 0.073745-1.1751 0-1.4142-2-1.4142-2 0z"/>
  <path d="m6.026 17.838h0.87282c0.43612-8e-3 0.87153-2.65e-4 1.3046 0.05353 0.38694 0.06087 0.77208 0.1297 1.1601 0.18444 0.28191 0.04281 0.56641 0.06177 0.84966 0.09261 0.21976 0.02471 0.44062 0.03582 0.6616 0.04125 0.16712 3e-3 0.33427 0.0029 0.5014 0.0028 1.4142-0.0012 1.4125-2.0012-0.0017-2-0.15067 1.34e-4 -0.30134 2.65e-4 -0.45199-0.0022-0.16458-0.0038-0.32908-0.01156-0.49275-0.03007-0.26228-0.02856-0.52565-0.04616-0.7868-0.08476-0.40232-0.05675-0.80119-0.13095-1.2031-0.19003-0.51188-0.05913-1.0257-0.07974-1.541-0.06755h-0.87282c-1.4142 0-1.4142 2 0 2z"/>
  <path d="m18.741 5.5033c-0.44494 0.73098-0.88279 1.467-1.259 2.2365-0.10994 0.22484-0.21082 0.45401-0.31623 0.68102-0.4302 1.0063-0.91119 1.9905-1.3287 3.0021-0.20676 0.51475-0.47406 1.0743-0.12184 1.6238 0.13205 0.206 0.38629 0.30044 0.57944 0.45066 0.13798 0.02449 0.27448 0.05968 0.41394 0.07348 0.09921 0.0098 0.47074-0.0068 0.58248-0.01459 0.35926-0.02519 0.7109-0.07844 1.0655-0.13927 0.69823-0.14024 1.3879-0.31865 2.0811-0.4812 0.28747-0.07376 0.58321-0.09331 0.87851-0.10231 0.30576-0.0059 0.61162-0.0031 0.91742-0.0021 0.22807 6.88e-4 0.45614 0.0012 0.68421 0.0016 0.15304 2.2e-4 0.09427-0.0088 0.17763 0.0075-0.28462-0.02938-0.23021-0.0032-0.59558-0.3309-0.06397-0.05738-0.04897-0.2043-0.13334-0.22064-0.06367-0.01233-0.04588 0.12136-0.07139 0.18098-0.06191 0.1447-0.11968 0.29149-0.19082 0.43187-0.12287 0.24247-0.26051 0.47717-0.39076 0.71576-0.62389 1.0701-1.2939 2.112-1.9596 3.1561-0.55406 0.86894-1.1104 1.7357-1.6769 2.5965-0.32441 0.49238-0.69509 0.95052-1.0672 1.4067-0.89315 1.0965 0.65751 2.3596 1.5507 1.2631 0.41428-0.50924 0.82578-1.0215 1.1873-1.5705 0.57153-0.86867 1.133-1.7431 1.692-2.6199 0.69243-1.0861 1.3895-2.1697 2.0351-3.2847 0.30823-0.58002 0.57107-0.99502 0.76129-1.6132 0.12984-0.42196 0.23092-1.006 6e-3 -1.4242-0.30643-0.56966-0.51158-0.56209-0.96761-0.67906-0.34436-0.02466-0.68939-0.01397-1.0345-0.01704-0.32952-0.0011-0.6591-0.0041-0.98857 0.0031-0.42736 0.01443-0.85461 0.05008-1.2708 0.15418-0.65561 0.15402-1.3082 0.32142-1.9678 0.45804-0.27292 0.04869-0.54434 0.09142-0.82109 0.11197-0.07139 0.0053-0.14302 0.0069-0.21449 0.01105-0.03553 0.0021-0.12232-0.02421-0.1065 0.0077 0.02144 0.04322 0.09034 0.03388 0.13552 0.05083 0.14182 0.13068 0.33536 0.22152 0.42545 0.39203 0.0941 0.1781 0.07132 0.39666 0.09682 0.59647 0.0019 0.01476-0.01621 0.05678-0.01534 0.04193 0.0014-0.02333 0.0096-0.04584 0.01687-0.06806 0.04392-0.13472 0.10441-0.2768 0.15636-0.40627 0.40477-0.9859 0.87778-1.9424 1.2943-2.9234 0.09301-0.20164 0.18178-0.4053 0.27904-0.60493 0.35987-0.73885 0.78243-1.4434 1.2087-2.145 0.71258-1.2216-1.015-2.2293-1.7276-1.0077z"/>
 </g>
</svg>
