<?xml version="1.0" encoding="UTF-8"?>
<!-- Created with Inkscape (http://www.inkscape.org/) -->
<svg width="100" height="100" version="1.1" viewBox="0 0 26.458 26.458" xmlns="http://www.w3.org/2000/svg">
 <g fill="#fff" stroke-width=".26458">
  <path d="m4.8353 19.456c-0.028413-2.1563-0.061951-4.3134-0.18643-6.4667-0.42084 0.57898-0.39281 1.1238 0.40765 0.79731 1.4784-0.09316 2.9782 0.0022 4.4352-0.31513 1.0709-0.65758 0.71497-2.1927 1.613-2.9847 1.1965-1.6138 3.2155-2.8007 5.2738-2.3786 1.2793 0.13897 2.5302 0.72848 3.2542 1.8251 1.3542 1.7043 2.4182 3.7659 2.4607 5.9832 0.20406 0.97025 0.13898 1.9375 0.02207 2.9118 0.20339 0.18701 0.8352-0.67342 0.05542-0.44557-3.5478-0.11541-7.0473 0.78622-10.597 0.59545-2.4028 0.04667-4.8055 0.33782-7.2067 0.26468-1.1227-0.28978-1.95 1.4777-0.76787 1.9467 1.2094 0.33788 2.4628-0.10798 3.695 6e-3 2.1125-0.11904 4.2246-0.26548 6.3418-0.22158 3.1259-0.04758 6.2205-0.84222 9.3543-0.53544 1.067-0.19084 1.1579-1.4413 1.2111-2.3169 0.12793-1.4396-0.21143-2.87-0.35298-4.2985-0.6117-2.3404-1.944-4.4489-3.5771-6.2095-1.3524-1.1691-3.2201-1.5426-4.9615-1.5841-2.7389 0.087126-5.2085 1.949-6.4691 4.3145-0.18106 0.38396-0.64676 1.456-0.40192 1.4834-0.079087-0.45786-1.3989 0.05087-1.9501-0.09042-1.0514 0.03202-2.1158 0.01901-3.1465 0.25876-1.0841 0.69298-0.5761 2.1087-0.58296 3.1569 0.0464 1.5545 0.013345 3.1119 0.12602 4.664 0.22294 1.1217 2.1258 0.75175 1.9504-0.36056z"/>
  <path d="m16.905 18.376c-0.58711-0.88912-1.204-1.7583-1.8222-2.6258-0.24696-0.35876-0.52232-0.69686-0.77783-1.0492-0.04156-0.05776-0.01986-0.02795-0.06516-0.0894-0.84064-1.1372-2.4489 0.05163-1.6083 1.1888 0.03388 0.04562 0.01389 0.01843 0.0596 0.08184 0.253 0.34383 0.51833 0.67863 0.76298 1.0287 0.60281 0.84579 1.2043 1.693 1.777 2.5596 0.77392 1.1836 2.4478 0.08915 1.6739-1.0945z"/>
  <path d="m17.518 19.265c0.61317-1.0435 1.4387-1.938 2.1197-2.934 0.19935-0.3089 0.3741-0.63335 0.52791-0.96717-0.09199 0.18774 0.07271-0.12796 0.08278-0.12322 0.25792-0.35332 0.25829-0.86907-0.03166-1.2052-0.30623-0.40678-0.93774-0.51013-1.3457-0.19658-0.42532 0.30628-0.54436 0.85192-0.82931 1.267-0.46334 0.74534-1.0673 1.3892-1.5666 2.1096-0.29831 0.42775-0.60428 0.85723-0.82665 1.3302-0.17814 0.45244 4.56e-4 1.0239 0.44574 1.2465 0.4513 0.25888 1.0913 0.10247 1.339-0.36557 0.03185-0.05187 0.05997-0.106 0.0847-0.16161z"/>
 </g>
</svg>
