<?xml version="1.0" encoding="UTF-8"?>
<!-- Created with Inkscape (http://www.inkscape.org/) -->
<svg width="100" height="100" version="1.1" viewBox="0 0 26.458 26.458" xmlns="http://www.w3.org/2000/svg">
 <path d="m4.8353 19.456c-0.028413-2.1563-0.061951-4.3134-0.18643-6.4667-0.42084 0.57898-0.39281 1.1238 0.40765 0.79731 1.4784-0.09316 2.9782 0.0022 4.4352-0.31513 0.56635-0.34775 3.2364-2.2669 5.8804-5.0712 3.417 2.1228 5.0914 3.6202 6.4291 4.5618 0.20406 0.97025 0.43115 4.8917 0.31424 5.866 0.20339 0.18701 0.8352-0.67342 0.05542-0.44557-3.5478-0.11541-7.0473 0.78622-10.597 0.59545-2.4028 0.04667-4.8055 0.33782-7.2067 0.26468-1.1227-0.28978-1.95 1.4777-0.76787 1.9467 1.2094 0.33788 2.4628-0.10798 3.695 6e-3 2.1125-0.11904 4.2246-0.26548 6.3418-0.22158 3.1259-0.04758 7.1944-0.48512 10.328-0.17833 0.28787-1.0024 0.18402-1.7984 0.2372-2.674 0.12793-1.4396 0.14567-3.9413 0.0041-5.3698-2.4725-2.3731-3.2455-3.8314-8.8957-6.7224-3.4403 2.4974-5.9514 5.0557-6.871 5.7978-0.98807-0.0683-1.3989 0.05087-1.9501-0.09042-1.0514 0.03202-2.1158 0.01901-3.1465 0.25876-1.0841 0.69298-0.5761 2.1087-0.58296 3.1569 0.0464 1.5545 0.013345 3.1119 0.12602 4.664 0.22296 1.1217 2.1259 0.75175 1.9504-0.36056z" fill="#fff" stroke-width=".26458"/>
</svg>
