<?xml version="1.0" encoding="UTF-8"?>
<!-- Created with Inkscape (http://www.inkscape.org/) -->
<svg width="100" height="100" version="1.1" viewBox="0 0 26.458 26.458" xmlns="http://www.w3.org/2000/svg">
 <g fill="#fff" stroke-width=".26458">
  <path d="m3.7596 12.195c0.061429-0.41757 0.21877-0.82624 0.43775-1.1866 0.061143-0.10063 0.13223-0.19487 0.19835-0.2923 0.073235-0.088888 0.14147-0.18215 0.21971-0.26666 0.16678-0.18016 0.45689-0.4285 0.63377-0.57874 0.44297-0.37624 0.89722-0.73709 1.3578-1.0914 0.55919-0.41029 1.1338-0.80057 1.7269-1.1602 1.0333-0.61851 2.1751-1.0134 3.3068-1.4079 1.057-0.35421 2.1195-0.70642 3.2171-0.91159 0.16817-0.026165 0.33754-0.054445 0.50843-0.048675 0.13624 0.0046 0.27221 0.031361 0.40617 0.053453 0.44402 0.065346 0.85961 0.22747 1.2692 0.40338 0.19209 0.10228 0.39045 0.19494 0.57215 0.31569 0.10231 0.06799 0.19728 0.15872 0.29332 0.23444 0.29426 0.22943 0.636 0.38136 0.96911 0.54374 0.41072 0.20021 0.2396 0.1142 0.64686 0.32845 0.42555 0.22699 0.83538 0.48185 1.2067 0.79076 0.20465 0.17026 0.2877 0.25721 0.47458 0.43841 0.10967 0.12086 0.15807 0.16041 0.23692 0.28586 0.05865 0.0933 0.11288 0.24022 0.1602 0.34177 0.15607 0.30726 0.31297 0.6141 0.47053 0.9206 0.10597 0.18448 0.19591 0.37681 0.28492 0.56983 0.05013 0.12763 0.08494 0.26013 0.12732 0.39038 0.03395 0.12668 0.09957 0.24161 0.12608 0.37011 0.01028 0.0831 0.01454 0.16655 0.0228 0.25004 0.01934 0.17815 0.04806 0.354 0.08503 0.52943 0.0049 0.02519 0.03059 0.15601 0.03295 0.17053 0.0022 0.01382 0.0064 0.05559 0.0039 0.04182-0.03361-0.18749-0.0064-0.31076 0.10672-0.52551 0.05958-0.11306 0.17537-0.18594 0.26306-0.27891 0.02924-0.01802 0.07236-0.02333 0.08772-0.05405 0.0093-0.0186-0.04155 2e-3 -0.06232 0.0032-0.04646 0.0027-0.09286 0.0064-0.13935 0.0085-0.25171 0.01133-0.50366 0.01293-0.75556 0.01524-0.64251 0.0023-1.285-3.44e-4 -1.9275-0.0016-0.53698-1e-3 -1.074-0.0014-1.6109-0.0016-0.44682-1.16e-4 -0.89364-8.5e-5 -1.3405-7.7e-5 -0.47952 8e-3 -0.9586-0.01172-1.4377-0.0276-0.49479-0.0207-0.98942 0.0131-1.4834 0.0378-0.47029 0.02355-0.94117 0.0304-1.412 0.03476-0.3269 0.0026-0.65381 0.0025-0.98072 0.0023-0.36904-2.33e-4 -0.73807-3.44e-4 -1.1071-4.24e-4 -0.51722-6.2e-5 -1.0344-6e-5 -1.5517-6.2e-5 -0.44359-1e-6 -0.88718 1e-6 -1.3308 2e-6 -0.44543-0.0089-0.88868-0.05758-1.3327-0.09064-0.42145-0.03109-0.84393-0.04226-1.2664-0.04815-0.26132-0.0028-0.52265-0.0025-0.78397-0.0022-0.18401 3.44e-4 -0.36802 5.02e-4 -0.55203 5.82e-4 -0.15496 5.8e-5 -0.30993 6.7e-5 -0.46489 6.9e-5 -0.15486-0.0042-0.30866 0.0031-0.46191 0.02666-0.10505 0.01141-0.20553 0.04355-0.30632 0.07315-1.3477 0.42853-0.74169 2.3345 0.60603 1.906-0.030318 0.0036-0.10549 0.01112 0.025974-0.0058-0.2003 9.2e-5 0.10973-1e-6 0.13625 3.4e-5 0.15526-1e-6 0.31052-1.1e-5 0.46578-6.9e-5 0.1846-8.4e-5 0.36919-2.28e-4 0.55379-5.82e-4 0.25123-3.44e-4 0.50246-6.35e-4 0.75368 2e-3 0.38236 0.0052 0.76479 0.01486 1.1463 0.04287 0.49313 0.03631 0.98547 0.09092 1.4804 0.0961 0.44359-1e-6 0.88717-3e-6 1.3308-2e-6 0.51711 2e-6 1.0342 0 1.5513 6.2e-5 0.36886 6e-5 0.73773 1.81e-4 1.1066 4.24e-4 0.3334 1.4e-4 0.66681 2.64e-4 1.0002-0.0024 0.49789-0.0047 0.99587-0.01219 1.4932-0.03717 0.43861-0.02194 0.87787-0.05412 1.3172-0.0364 0.5012 0.01661 1.0024 0.03663 1.504 0.0287 0.44657-8e-6 0.89314-3.9e-5 1.3397 7.7e-5 0.53589 1.89e-4 1.0718 5.82e-4 1.6077 0.0016 0.6501 0.0013 1.3002 4e-3 1.9503 0.0015 0.29743-0.0029 0.59582-0.0025 0.89282-0.02125 0.15056-0.0095 0.40626-0.03133 0.55272-0.07101 0.1252-0.03393 0.24513-0.08496 0.36769-0.12744 0.14976-0.12705 0.33856-0.21893 0.44927-0.38114 0.26427-0.38721 0.22923-0.779 0.13863-1.1924-0.02493-0.1183-0.04684-0.23512-0.0564-0.35622-0.0024 0.04993 1.31e-4 0.0089-0.0054-0.07354-0.0092-0.13857-0.02911-0.27637-0.06018-0.41174-0.0452-0.17821-0.10657-0.34956-0.16951-0.52176-0.068442-0.20208-0.11987-0.41036-0.21173-0.60422-0.10102-0.21773-0.20239-0.43546-0.32124-0.64421-0.14576-0.28355-0.29046-0.56769-0.43648-0.85108-0.071072-0.15249-0.13785-0.30848-0.22224-0.45427-0.16426-0.28377-0.36592-0.54036-0.60075-0.76948-0.25608-0.24511-0.35267-0.3464-0.63576-0.57778-0.46498-0.38005-0.97379-0.69936-1.5032-0.98141-0.45074-0.23597-0.27452-0.14803-0.7033-0.35694-0.14256-0.069461-0.28767-0.13382-0.42846-0.2068-0.073911-0.038313-0.11001-0.064858-0.17777-0.11003-0.091789-0.071794-0.17978-0.14846-0.27314-0.21821-0.32234-0.24084-0.68177-0.42322-1.0425-0.59861-0.56127-0.23866-1.1345-0.44922-1.741-0.53935-0.20346-0.031503-0.3134-0.053086-0.5163-0.067434-0.36336-0.025696-0.726 0.0079058-1.0838 0.072741-0.35724 0.068218-0.44721 0.080908-0.82124 0.17375-0.9075 0.22526-1.7971 0.51794-2.6831 0.8147-1.2646 0.44186-2.5365 0.89225-3.6885 1.5883-0.65368 0.39988-1.2911 0.82673-1.9066 1.2836-0.49436 0.3811-0.9843 0.76729-1.4581 1.174-0.31436 0.26984-0.5984 0.5183-0.87305 0.82906-0.11802 0.13353-0.22072 0.27986-0.33108 0.41979-0.10051 0.15607-0.20907 0.30725-0.30153 0.46822-0.32269 0.56179-0.5494 1.1884-0.64266 1.8304-0.013396 0.09222-0.013736 0.18587-0.020603 0.27881 0 1.4142 2 1.4142 2 0z"/>
  <path d="m8.5086 12.975c-0.035544 0.22444-0.045239 0.45194-0.064907 0.67816-0.045193 0.33955-0.078741 0.68028-0.10362 1.0219-0.032868 0.33729-0.054701 0.67543-0.069719 1.0139-0.016632 0.35471-0.010626 0.70902 0.00843 1.0634 0.037692 0.65285 0.19951 1.2867 0.41128 1.9024 0.17424 0.48355 0.46252 0.91701 0.83642 1.2695 0.07537 0.07105 0.15751 0.13454 0.23627 0.20181 0.39711 0.31986 0.86103 0.53058 1.3159 0.75202 0.36435 0.18151 0.74718 0.31281 1.1414 0.41037 0.29535 0.06916 0.58836 0.14747 0.88367 0.21684 0.38563 0.09254 0.77923 0.13429 1.1742 0.15733 0.41918 0.0342 0.80826-0.03557 1.1786-0.24097 0.07129-0.03954 0.13671-0.08883 0.20507-0.13325 0.06352-0.05162 0.12875-0.1012 0.19056-0.15486 0.07071-0.06138 0.17705-0.1689 0.2499-0.23708 0.02329-0.02179 0.04686-0.0433 0.07116-0.06395 0.01342-0.0114 0.02466-0.02863 0.04191-0.03216 0.01386-0.0028-0.02016 0.01985-0.03025 0.02977 0.05266-0.0093-0.0903 0.04699-0.06489 0.04235 0.03396-0.0062 0.06637-0.01902 0.09949-0.02874 0.0967-0.02838 0.19282-0.05565 0.2858-0.09581 0.07641-0.033 0.14963-0.07294 0.22445-0.10941 0.21254-0.12318 0.41262-0.27097 0.58112-0.45069 0.10834-0.11555 0.13685-0.16536 0.22544-0.29191 0.14624-0.22866 0.25635-0.47432 0.34208-0.73121 0.05615-0.19155 0.11045-0.38358 0.15925-0.57714 0.0442-0.22723 0.09826-0.45219 0.14568-0.67873 0.05149-0.22453 0.08908-0.45201 0.13066-0.67854 0.04828-0.25119 0.06915-0.50626 0.08064-0.76142 0.0062-0.21804 0.0057-0.43619 0.0054-0.65429 0.0096-0.26511-0.03207-0.52777-0.08169-0.78723-0.02903-0.15477-0.0653-0.30774-0.10079-0.46107-0.01492-0.11378-0.03446-0.22874-0.05399-0.34216-0.01268-0.10224-0.04692-0.20007-0.06842-0.30032-0.0059-0.02739-0.0073-0.10102-0.0098-0.12913-0.0095-0.16814-0.01522-0.33545-0.04105-0.50215-0.03764-0.16962-0.10088-0.33139-0.162-0.49334-0.01813-0.05814-0.0026-0.01001-0.05859-0.13997-0.59546-1.2827-2.4095-0.44063-1.8141 0.84211-0.02195-0.06347-0.0164-0.04655 0.01938 0.04977-0.0027-0.0095-0.01124-0.03766-8e-3 -0.02837 0.01374 0.03988 0.13058 0.39641 0.05063 0.09924 5.82e-4 -0.0098 0.0012-0.03935 0.0018-0.02951 7e-3 0.1323 0.0068 0.2651 0.02147 0.39698 0.02019 0.19776 0.05199 0.39292 0.09972 0.58547 0.02905 0.14934 0.04415 0.30113 0.07626 0.44994 0.03087 0.12984 0.06129 0.25924 0.08554 0.39068 0.01592 0.07434 0.0204 0.15157 0.03802 0.22525 5.56e-4 0.0023 0.0052-7e-3 0.0053-0.0047 3e-6 6e-5 3.17e-4 0.1801 3.17e-4 0.18096 2.35e-4 0.18823 6.09e-4 0.37648-0.0035 0.56468-0.0068 0.16348-0.01823 0.32713-0.04977 0.48799-0.03861 0.21099-0.07325 0.42291-0.12154 0.63193-0.04156 0.20175-0.09183 0.40159-0.12872 0.6043-0.03479 0.14524-0.07907 0.28794-0.11743 0.43221-0.0071 0.02213-0.01654 0.04367-0.02143 0.0664-8.73e-4 4e-3 0.01057-0.01239 9e-3 -0.0086-0.02526 0.06071-0.06471 0.12861-0.09112 0.1856-0.0057 0.02577 0.03732-0.01524 0.01481 0.0068-0.03004 0.02939-0.06389 0.05459-0.09538 0.08204 0.02177 0.01081 0.01728 0.0057-0.03352 0.02296-0.20427 0.06935-0.42111 0.10482-0.60693 0.22261-0.06685 0.04405-0.13569 0.08522-0.20055 0.13215-0.1549 0.11207-0.2882 0.25463-0.42208 0.38992-0.0065 0.0069-0.02405 0.01219-0.01961 0.02056 0.0046 0.0088 0.01983-0.0014 0.02976-0.0014 0.01168 3.3e-5 0.02351-5.29e-4 0.035 0.0016 0.0069 0.0013 0.02624 0.0072 0.01933 0.0085-0.03974 0.0074-0.17955-5.03e-4 -0.20426-0.0014-0.27994-0.01558-0.55893-0.04163-0.83225-0.10788-0.28822-0.06728-0.57387-0.14473-0.86216-0.21168-0.25751-0.06279-0.5067-0.14558-0.74388-0.26659-0.31063-0.15113-0.63134-0.28722-0.91229-0.49142-0.21197-0.16524-0.36912-0.32995-0.46162-0.58805-0.15446-0.44192-0.27692-0.89652-0.30466-1.3662-0.01935-0.28539-0.01774-0.5711-0.0069-0.85694 0.01402-0.31988 0.03559-0.63931 0.06647-0.95804 0.02372-0.33204 0.05982-0.66269 0.10132-0.99297 0.01292-0.14922 0.03007-0.3194 0.03356-0.45885 0.27735-1.3868-1.6838-1.779-1.9612-0.39223z"/>
 </g>
</svg>
