<?xml version="1.0" encoding="UTF-8"?>
<!-- Created with Inkscape (http://www.inkscape.org/) -->
<svg width="100" height="100" version="1.1" viewBox="0 0 26.458 26.458" xmlns="http://www.w3.org/2000/svg">
 <g fill="#fff" stroke-width=".28769">
  <path d="m5.8578 23.691c-0.76104-1.4282 0.24288-3.2229 1.7928-3.4987 1.0868-0.55324 2.2548 1.0062 2.4214 1.1516 0.72666-0.35746 2.3972-0.03958 1.8982-1.3063-0.10418-1.6774 0.61425-3.2416 1.4362-4.6552 0.67617-1.3064 1.3341-3.2353 3.1874-2.869 1.5719 0.23627 3.4183 0.14527 4.5501 1.4715 1.2637 0.97935 1.4705 2.467 1.9467 3.835 1.5878 1.1545 2.3159-1.38 1.5792-2.5068-1.0802-2.3189-3.126-4.5571-5.8421-4.7007-1.4888-0.25703-3.1167-0.48782-4.561 0.08925-1.6302 0.74198-2.0947 2.6036-2.9725 4.0044-0.95583 1.6963-1.6479 3.6055-1.4859 5.5808-0.44213 1.4668 1.6077 1.8895 2.2324 0.92942-0.0019-1.5321-1.4209-2.7555-2.828-3.1084-2.8046-0.76372-6.0555 1.7115-5.7722 4.678-0.11852 1.1232 0.84497 3.1261 2.153 2.1028 0.34372-0.28564 0.41027-0.7939 0.26426-1.1977z"/>
  <path d="m11.318 5.9469c-1.1407-0.4512-2.5726-0.35803-3.3993 0.64063-1.0613 1.1948-1.4004 3.1147-0.64118 4.543 0.96905 1.7533 3.7873 1.7951 4.8644 0.13334 0.69047-1.0676 1.3633-2.4661 0.59557-3.6876-0.50939-1.5907-2.9832-0.3286-2.0049 0.99497 0.59137 0.78463-1.2829 2.7201-1.6887 1.124-0.20641-1.089 0.72585-2.4503 1.8198-1.5184 1.6053 0.31809 2.3284-2.1744 0.45438-2.23z"/>
  <path d="m15.955 8.2198c1.2886-0.13231 2.4674-2.2911 0.63938-2.5677-1.0688 0.011092-2.9377 1.0803-2.1858 2.3226 0.34109 0.48219 1.0787 0.64494 1.5464 0.24511z"/>
  <path d="m6.7539 14.017c-0.40716 0.97615-0.81654 2.9333 0.76859 2.9768 1.2823-0.40156 1.5418-2.5015 1.1799-3.5924-0.5923-0.71662-1.9449-0.39177-1.9485 0.61562z"/>
  <path d="m3.1991 8.409c-1.3154-0.64563-3.1389 1.4391-1.4011 2.0869 1.3022 0.83886 3.8786-0.75211 2.1296-1.9985-0.22288-0.11217-0.48516-0.14614-0.72856-0.088327z"/>
  <path d="m7.0659 3.9185c-0.46052-0.97296-1.9326-2.5922-2.7786-1.0871-0.29836 1.2204 1.1317 3.1856 2.4424 2.7359 0.57122-0.3096 0.79601-1.1467 0.33616-1.6488z"/>
  <path d="m12.385 3.4378c0.79824-1.3223-1.4174-2.8068-1.9862-1.1177-1.016 1.3406 1.068 3.3401 1.9181 1.5596l0.05625-0.21536z"/>
 </g>
</svg>
