<?xml version="1.0" encoding="UTF-8" standalone="no"?>
<!-- Created with Inkscape (http://www.inkscape.org/) -->

<svg
   width="100"
   height="100"
   version="1.1"
   viewBox="0 0 26.458 26.458"
   id="svg1"
   sodipodi:docname="module-artificiel.svg"
   inkscape:version="1.4 (86a8ad7, 2024-10-11)"
   xmlns:inkscape="http://www.inkscape.org/namespaces/inkscape"
   xmlns:sodipodi="http://sodipodi.sourceforge.net/DTD/sodipodi-0.dtd"
   xmlns="http://www.w3.org/2000/svg"
   xmlns:svg="http://www.w3.org/2000/svg">
  <defs
     id="defs1" />
  <sodipodi:namedview
     id="namedview1"
     pagecolor="#505050"
     bordercolor="#eeeeee"
     borderopacity="1"
     inkscape:showpageshadow="0"
     inkscape:pageopacity="0"
     inkscape:pagecheckerboard="0"
     inkscape:deskcolor="#505050"
     inkscape:zoom="8.15"
     inkscape:cx="50.06135"
     inkscape:cy="50"
     inkscape:window-width="1920"
     inkscape:window-height="1017"
     inkscape:window-x="-8"
     inkscape:window-y="-8"
     inkscape:window-maximized="1"
     inkscape:current-layer="svg1" />
  <path
     d="m4.8353 19.456c-0.00781-1.0445-0.035791-2.0888-0.055249-3.1332-0.015616-0.92095-0.052582-1.8411-0.10474-2.7607-0.01429-0.19066-0.017296-0.38191-0.026445-0.57278-8.996e-4 -0.01889 9.525e-4 0.03782 0.00146 0.05673-0.4969 1.0706-0.026278 0.3476-0.5582 0.80492-0.016521 0.0142 0.043603-2.63e-4 0.065331-0.0019 0.069392-0.0051 0.13853-0.01334 0.20794-0.01811 0.11851-0.0082 0.62119-0.03346 0.70327-0.03769 1.0333-0.04481 2.0671-0.08143 3.1-0.13511 0.53419-0.04139 1.1252 0.0111 1.5766-0.34304 0.12713-0.09972 0.21206-0.24384 0.31809-0.36577 0.15852-0.24691 0.16907-0.51053 0.21776-0.78506 0.02015-0.11363 0.0606-0.22515 0.0969-0.33413 0.10736-0.27734 0.21266-0.55724 0.35654-0.81829 0.10478-0.19012 0.13406-0.22519 0.25385-0.403 0.24425-0.33353 0.54547-0.6168 0.83054-0.91386 0.30246-0.28958 0.62381-0.55822 0.96338-0.80297 0.41646-0.30029 0.88599-0.49986 1.3653-0.67415 0.22286-0.073803 0.45133-0.13487 0.6857-0.15559 0.24257-0.00662 0.48529-0.00349 0.72791-0.00249 0.39403-0.00869 0.78709 0.00225 1.1694 0.10453 0.3567 0.11419 0.72264 0.19479 1.082 0.29967 0.41809 0.11444 0.77133 0.36166 1.1112 0.62114 0.22479 0.18498 0.3644 0.44235 0.52993 0.67663 0.21322 0.26481 0.44123 0.51769 0.6612 0.77716 0.30186 0.39021 0.52903 0.83086 0.75877 1.2656 0.19023 0.35622 0.34846 0.72789 0.53127 1.0878 0.15714 0.29001 0.28297 0.59837 0.38273 0.91267 0.08079 0.30056 0.15424 0.60323 0.19333 0.91224 0.02947 0.25006 0.02802 0.50208 0.03918 0.75324 0.0313 0.33995 0.08184 0.67882 0.13998 1.0153 0.04294 0.221 0.06608 0.44474 0.07969 0.66923 0.0073 0.13228 7e-3 0.2648 7e-3 0.39723 0.0058 0.14074-0.0021 0.27953-0.01673 0.41919-0.03692 0.20757 0.02789-0.07202-0.0358 0.12746-0.01286 0.04028-0.0245 0.08095-0.03676 0.12142-0.06053 0.20626-0.08486 0.41947-0.0958 0.63335-0.0028 0.06872-0.0037 0.1375-4e-3 0.20626-8.8e-5 0.01877-0.0019 0.07499-8.8e-5 0.05631 0.0031-0.03259 0.0011-0.06553 0.0039-0.09814-0.0021 0.01101-0.0044 0.02199-0.0064 0.03302-0.0092 0.05098-0.01497 0.08446-0.02158 0.13691-0.0032 0.02525-0.01482 0.10049-0.0083 0.0759 0.10906-0.4101-0.06216-0.05233 0.28921-0.58472 0.14286-0.07505 0.28571-0.15011 0.42857-0.22516 0.04312-6e-3 0.08929-8.73e-4 0.12936-0.01788 0.02161-0.0092-0.04668-0.0052-0.07006-0.0073-0.0496-0.0045-0.09921-9e-3 -0.14888-0.01272-0.19655-0.01471-0.23159-0.01494-0.43716-0.02487-0.63576-0.0261-1.2714-0.02893-1.9069 0.0012-0.55732 0.02809-1.1132 0.07875-1.6679 0.13845-0.5743 0.05992-1.1496 0.1032-1.7229 0.17314-0.56421 0.07329-1.1318 0.11101-1.6965 0.17978-0.36234 0.05226-0.72735 0.07268-1.0929 0.08348-0.29944 0.0071-0.59899 0.0062-0.8985 0.0059-0.27902-4.76e-4 -0.55803-8.46e-4 -0.83705-1e-3 -0.2893 1e-3 -0.5786-0.0045-0.86773 0.0064-0.23363 0.01437-0.46718 0.02951-0.7012 0.03534-0.29101 0.0061-0.58206 0.0011-0.87294 0.01165-0.3411 0.01763-0.68221 0.02832-1.0226 0.0577-0.33287 0.03739-0.66399 0.08279-0.99845 0.10388-0.34772 0.01746-0.69596 0.01833-1.044 0.01945-0.31223-0.0065-0.62366 0.0049-0.93528 0.02248-0.19549 0.01168-0.39123 0.01853-0.58703 0.02229-0.11143 0.0019-0.22288 0.0017-0.33432 0.0016-0.17231-0.0042-0.34342 7.67e-4 -0.51423 0.02515-0.06117 0.01439-0.12315 0.01684-0.18557 0.01922-0.084185 0.0025-0.16842 0.0024-0.25264 0.0024-0.015393-9e-6 -0.030788-1.9e-5 -0.046182-2.9e-5 -1.4142-8.73e-4 -1.4154 1.9991-0.00122 2 0.0161 1e-5 0.032198 1.9e-5 0.048297 2.9e-5 0.1125-5.4e-5 0.22502-1.2e-4 0.33746-0.0043 0.13726-0.0062 0.27466-0.01568 0.40985-0.04155-0.017425-3.97e-4 -0.069702-7.94e-4 -0.052276-0.0012 0.085154-0.0019 0.17042 0.0016 0.25558 1.97e-4 0.12471 5.7e-5 0.24942 1.83e-4 0.37411-2e-3 0.22045-0.0043 0.44084-0.01199 0.66096-0.0251 0.27628-0.01561 0.55209-0.02625 0.82898-0.0193 0.38878-0.0013 0.77778-0.0027 1.1661-0.02357 0.35033-0.02295 0.69796-0.06489 1.0463-0.10754 0.3084-0.02827 0.61798-0.03343 0.92707-0.05154 0.28105-0.01341 0.56286-5.82e-4 0.84408-0.01069 0.24528-0.0066 0.49021-0.02017 0.73504-0.0365 0.25979-0.01393 0.52056 7.68e-4 0.7806-0.0045 0.2788 1.71e-4 0.5576 5.55e-4 0.8364 1e-3 0.32011 2.91e-4 0.64028 0.0011 0.96032-0.0068 0.42648-0.01295 0.85242-0.03781 1.2753-0.09733 0.5648-0.06915 1.1328-0.10493 1.697-0.17984 0.56377-0.0692 1.1298-0.10963 1.6945-0.16987 0.51526-0.05572 1.0316-0.10283 1.5493-0.12922 0.14334-7e-3 0.39956-0.02087 0.54476-0.02229 0.39033-0.0038 0.78093 0.01232 1.1711 0.02108 0.16863 0.0079 0.3363 0.01798 0.5045 0.03204 0.12862 0.01075 0.35641 0.03525 0.46414 0.0027 0.19224-0.05808 0.3665-0.16433 0.54974-0.24649 0.10051-0.14017 0.22101-0.26798 0.30152-0.42052 0.06189-0.11725 0.06173-0.24682 0.08649-0.37155 0.02442-0.1447 0.03328-0.28999 0.03192-0.43655 0.0022-0.05588 0.0032-0.11203 0.01753-0.1665 0.02184-0.08694 0.05821-0.17 0.08202-0.25649 0.03131-0.11371 0.04996-0.23056 0.0604-0.34788 0.02144-0.20794 0.03302-0.41611 0.0274-0.62525 1.1e-5 -0.17402-5.03e-4 -0.34814-0.01086-0.52192-0.01894-0.29813-0.0499-0.59541-0.10568-0.88916-0.04501-0.25348-0.07993-0.50915-0.1123-0.76438-0.01549-0.30811-0.01172-0.61763-0.05452-0.92399-0.05903-0.42973-0.15283-0.85338-0.27488-1.2697-0.13709-0.41169-0.2954-0.81873-0.5027-1.2008-0.18911-0.36714-0.34553-0.75043-0.54432-1.1129-0.29758-0.56221-0.59862-1.1281-1.0013-1.6239-0.18376-0.21667-0.36914-0.43223-0.55783-0.6443-0.09497-0.13132-0.17852-0.27034-0.27528-0.40046-0.19643-0.26415-0.41827-0.50725-0.67781-0.71131-0.22515-0.16884-0.31789-0.24533-0.56013-0.39755-0.37446-0.2353-0.7746-0.42597-1.2001-0.54886-0.38508-0.11091-0.77552-0.2015-1.1584-0.32019-0.09245-0.02195-0.18413-0.047432-0.27734-0.06585-0.44941-0.088795-0.90726-0.10257-1.3639-0.09714-0.31287-0.00127-0.62632-0.00811-0.93871 0.012774-0.39945 0.042968-0.79154 0.13333-1.1707 0.26722-0.65719 0.2419-1.2849 0.52262-1.8556 0.93594-0.10139 0.074487-0.20451 0.14668-0.30418 0.22346-0.32516 0.25047-0.62932 0.52912-0.92567 0.81248-0.36652 0.38371-0.75187 0.75209-1.0533 1.1925-0.17527 0.26748-0.22183 0.3257-0.37389 0.61012-0.18889 0.35329-0.33543 0.72752-0.47306 1.103-0.070929 0.22478-0.13395 0.44528-0.1749 0.67781-0.00801 0.04549-0.016793 0.09115-0.018643 0.13729-2.911e-4 0.0075 0.00923-0.01175 0.013843-0.01762 0.027348-0.04668 0.054697-0.09337 0.082045-0.14005 0.06755-0.06152 0.12469-0.13691 0.20265-0.18456 0.075769-0.04631 0.16542-0.06497 0.24998-0.09211 0.00387-0.0012 0.011864 0.0087 0.00785 0.0094-0.25466 0.04148-0.51687 0.0232-0.77243 0.05341-1.0326 0.05393-2.0661 0.08981-3.0991 0.13506-0.36058 0.01864-0.7255 0.02578-1.084 0.07227-0.2662 0.03452-0.63754 0.09395-0.82752 0.29202-0.18978 0.19786-0.26455 0.48029-0.39683 0.72044-0.012096 0.26527 0.00574 0.52973 0.021365 0.79472 0.050764 0.8942 0.086774 1.789 0.10188 2.6846 0.019233 1.032 0.04681 2.0638 0.054902 3.0959 0 1.4142 2 1.4142 2 0z"
     fill="#fff"
     stroke-width=".26458"
     id="path1" />
  <path
     style="fill:#ffffff;stroke-width:0.26458"
     id="path2"
     d="m 16.905454,18.375582 c -0.587106,-0.889118 -1.203957,-1.758258 -1.82225,-2.625846 -0.246959,-0.358756 -0.522315,-0.696858 -0.777826,-1.04923 -0.04156,-0.05776 -0.01986,-0.02795 -0.06516,-0.0894 -0.840642,-1.137221 -2.448915,0.05163 -1.608273,1.188847 v 0 c 0.03388,0.04562 0.01389,0.01843 0.0596,0.08184 0.253002,0.343833 0.518326,0.678627 0.762981,1.028678 0.602806,0.845787 1.20434,1.692999 1.77701,2.559596 0.773918,1.183638 2.447836,0.08915 1.673918,-1.094486 z" />
  <path
     style="fill:#ffffff;stroke-width:0.26458"
     id="path3"
     d="m 17.518337,19.265118 c 0.613168,-1.0435 1.438675,-1.93805 2.119743,-2.934016 0.199347,-0.308905 0.374104,-0.633352 0.527909,-0.967174 -0.09199,0.187739 0.07271,-0.127961 0.08278,-0.123225 0.257925,-0.353321 0.258293,-0.86907 -0.03166,-1.205152 -0.306226,-0.406782 -0.937736,-0.51013 -1.345689,-0.196575 -0.425325,0.306284 -0.544358,0.851917 -0.829313,1.267035 -0.463335,0.745337 -1.067336,1.389188 -1.566572,2.109605 -0.298307,0.427753 -0.604284,0.857231 -0.826649,1.330184 -0.178139,0.452442 4.56e-4,1.023895 0.445742,1.246502 0.451297,0.258878 1.091284,0.102466 1.338999,-0.365571 0.03185,-0.05187 0.05997,-0.106004 0.0847,-0.161613 z" />
</svg>
