<?xml version="1.0" encoding="UTF-8"?>
<!-- Created with Inkscape (http://www.inkscape.org/) -->
<svg width="100" height="100" version="1.1" viewBox="0 0 26.458 26.458" xmlns="http://www.w3.org/2000/svg">
 <path d="m11.3 3.6563c-2.0716 2.1464-3.9996 4.9601-6.3621 6.7882-0.83906 0.6383-2.0508 1.6474-2.6357 2.0819-1.3632 0.89715 0.17213 2.2978 1.1153 2.8025 1.8127 1.2227 3.592 2.5392 4.9451 4.2802 1.1036 1.2482 2.49 3.0049 3.5243 4.3073 0.89042 0.81388 2.0349-0.02119 2.713-0.69512 1.4844-1.3117 2.3236-3.4209 3.9465-4.5816 1.5556-1.322 2.2883-1.9734 3.9462-3.16 0.73573-0.82895 1.8397-1.0842 2.2724-2.1154 0.41321-1.2939-1.0492-1.8601-1.8545-2.5208-2.0622-1.4834-2.7669-2.6743-4.9985-3.9245-1.5161-0.81473-3.0169-2.7701-3.9517-4.211-0.91625-1.3847-2.7055 0.53347-1.4034 1.4803 1.1609 1.7353 3.0612 3.7905 4.884 4.7741 2.371 1.3399 3.1863 2.6863 5.3764 4.2969 0.53779 0.62231 0.02875-1.4657 0.85923-1.2083-2.1788 0.2293-2.3593 2.1514-4.1146 3.2842-1.9743 1.4072-3.5418 3.4204-5.1322 5.2592-0.54511 0.5956-1.1956 1.1741-1.778 1.6703 0.51585-0.04531 0.85695 0.52724 0.31857-0.17344-1.4298-1.8217-3.2583-4.0656-4.8821-5.7175-1.3854-1.2935-3.025-2.2682-4.5181-3.4219 0.40702 0.43449-0.38637 1.4629-0.21424 1.2814 3.2119-2.4803 6.1724-5.7663 8.9381-8.752 1.42-0.74896 0.36571-2.8529-0.99392-1.8251z" fill="#fff" stroke-width=".26458"/>
</svg>
