<?xml version="1.0" encoding="UTF-8"?>
<!-- Created with Inkscape (http://www.inkscape.org/) -->
<svg width="100" height="100" version="1.1" viewBox="0 0 26.458 26.458" xmlns="http://www.w3.org/2000/svg">
 <path d="m1.7964 15.142c0.60509 0.53034 1.2996 1.4313 1.6232 2.3041 0.67255 1.4179 1.12 2.9458 1.1371 4.5279-0.23119 1.1241 0.87018 2.2473 1.9217 1.7198 0.36302-1.0622 0.2211-2.2725 0.50149-3.3804 0.28123-1.7752 0.4865-6.4129 1.8865-7.6822 1.3215-1.3883 3.6146-2.3284 4.5984-4.0722 0.98624-1.3302 0.62895-3.3561 0.56218-4.9999-0.20917 0.40382-2.4931-0.10125-1.6244 1.2506 0.41487 2.0384 0.60933 3.6574 2.298 4.8453 1.3943 1.1398 2.9143 2.6114 3.9428 4.1879 0.87408 1.6231 0.72761 5.8305 0.9536 7.6208 0.17132 0.60011-0.17645 2.2289 0.85688 1.3148 0.37787-0.18702 1.353-0.44836 1.3428-0.05526 0.01978-1.4532-0.01871-2.993 0.58085-4.3437 0.53923-1.0007 1.5942-1.9423 2.1793-2.6779 0.21417-0.25994 1.0488-0.56101 0.86272-1.4461-0.09774-1.1708-2.0188-0.3562-1.5863-0.40847-0.64581 0.37807-0.85927 0.80849-1.4802 1.4363-1.1842 1.2008-2.4693 2.7493-2.5851 4.4979-0.14148 1.2051 6.2e-5 2.363 0.13698 3.5708 0.86918 0.08638 2.2934 0.34795 1.9474-1.026 0.06576-1.7931-0.24472-3.584-0.57679-5.3387-0.3213-1.552-0.14756-4.0675-1.3695-5.4523-1.2219-1.3848-3.729-2.9401-4.83-4.0773-1.1938-1.0552-0.78654-2.7145-1.0771-4.2362-0.96612-0.19701-2.2088-0.14262-1.8271 1.313 0.0032 1.5636-0.18107 3.1517-1.377 4.1099-2.4107 0.87359-5.1219 3.8261-5.2081 6.1022-0.086153 2.2761-0.48394 5.1004-0.80379 7.2633-0.075496 0.49922-0.16344 1.2415 0.31275 0.40631 0.27238-0.84606 1.9391 1.2644 1.4418-0.20017-0.080526-1.7181-0.36359-3.4358-1.1053-4.9987-0.61636-1.5219-1.5075-3.1303-3.0201-3.8796-1.2267-0.5204-1.9404 1.4749-0.6157 1.8044z" fill="#fff" stroke-width=".25458"/>
</svg>
