<?xml version="1.0" encoding="UTF-8"?>
<!-- Created with Inkscape (http://www.inkscape.org/) -->
<svg width="100" height="100" version="1.1" viewBox="0 0 26.458 26.458" xmlns="http://www.w3.org/2000/svg">
 <path d="m3.3632 6.4864c1.6088 0.46049 3.1092 1.2235 4.6736 1.8074 0.1735 0.078283 6.8802 3.9851 9.0651 6.9598s2.866 5.4283 3.6491 7.7553c0.30629 1.5145 2.5316 0.97624 1.9906-0.51266-0.41938-1.3665-0.9653-2.5349-1.2361-4.0738-0.27084-1.5389-1.8597-3.3443-3.3781-5.3018-1.5184-1.9575-3.0044-2.8539-5.2208-4.4151-1.927-1.2818-4.0126-2.3041-6.1853-3.0939-1.151-0.4636-2.3017-1.0873-3.559-1.1519-1.1453 0.21986-1.1008 2.1475 0.20094 2.0266z" fill="#fff" stroke-width=".26458"/>
 <path d="m18.882 5.1988c-1.8592-0.7332-4.0211-0.88031-5.848 0.03236-1.8331 0.77127-3.7913 1.9076-4.4675 3.9001-0.81909 2.1103-0.42255 4.7525 1.3142 6.2941 1.8077 1.9037 4.426 3.2785 7.111 2.8515 2.12-0.25162 4.1053-1.3552 5.534-2.923 1.3727-1.6634 1.0852-4.0609 0.3849-5.9493-0.49639-1.5301-1.3999-3.1736-3.0418-3.6683-0.80045-0.72809-2.613-0.31723-2.0468 1.0016 0.52088 0.95189 1.954 0.68817 2.4313 1.7036 0.64871 0.97945 0.99768 2.1387 1.2038 3.2873 0.11848 0.97416-0.0057 2.1421-0.88752 2.7383-1.7781 1.6939-4.5933 2.4773-6.8675 1.3361-1.15-0.57545-2.1953-1.4145-2.9669-2.444-1.1945-1.7768-0.49516-4.5415 1.4668-5.4555 1.5557-0.99922 3.5547-1.7909 5.3649-0.98178 1.5337 1.0565 3.0392-1.281 1.3153-1.7231z" fill="#fff" stroke-width=".26458"/>
</svg>
